<svg width="23" height="27" viewBox="0 0 23 27" fill="none" xmlns="http://www.w3.org/2000/svg">
<path d="M6 10.5C5.05573 10.5 4.16656 10.9446 3.6 11.7L2.85 12.7C2.46053 13.2193 2.25 13.8509 2.25 14.5V24C2.25 24.3978 2.40804 24.7794 2.68934 25.0607C2.97064 25.342 3.35218 25.5 3.75 25.5H14.25C14.6478 25.5 15.0294 25.342 15.3107 25.0607C15.592 24.7794 15.75 24.3978 15.75 24V14.5C15.75 13.8509 15.5395 13.2193 15.15 12.7L14.4 11.7C13.8334 10.9446 12.9443 10.5 12 10.5H6Z" fill="#0078D1"/>
<path d="M2.25 13.5H15.75" stroke="white" stroke-width="1.5" stroke-linecap="round" stroke-linejoin="round"/>
<path d="M12 16.5C12 17.2956 11.6839 18.0587 11.1213 18.6213C10.5587 19.1839 9.79565 19.5 9 19.5C8.20435 19.5 7.44129 19.1839 6.87868 18.6213C6.31607 18.0587 6 17.2956 6 16.5" stroke="white" stroke-width="1.5" stroke-linecap="round" stroke-linejoin="round"/>
<rect x="9" width="14" height="13" rx="6.5" fill="#FC4646"/>
<path d="M18.4219 10H13.5879V9.13574L15.4385 7.26074C15.7965 6.89616 16.0911 6.58203 16.3223 6.31836C16.5534 6.05143 16.7243 5.79915 16.835 5.56152C16.9489 5.32389 17.0059 5.0651 17.0059 4.78516C17.0059 4.4401 16.9066 4.17969 16.708 4.00391C16.5094 3.82487 16.2474 3.73535 15.9219 3.73535C15.6126 3.73535 15.3262 3.7972 15.0625 3.9209C14.8021 4.04134 14.5319 4.21387 14.252 4.43848L13.6221 3.68164C13.8206 3.51237 14.0322 3.35775 14.2568 3.21777C14.4847 3.0778 14.7386 2.96712 15.0186 2.88574C15.2985 2.80111 15.6175 2.75879 15.9756 2.75879C16.4281 2.75879 16.8187 2.84017 17.1475 3.00293C17.4762 3.16243 17.7285 3.38542 17.9043 3.67188C18.0833 3.95833 18.1729 4.29199 18.1729 4.67285C18.1729 5.05697 18.0964 5.41178 17.9434 5.7373C17.7904 6.06283 17.5723 6.38509 17.2891 6.7041C17.0059 7.01986 16.6689 7.36328 16.2783 7.73438L15.043 8.94043V8.99414H18.4219V10Z" fill="white"/>
</svg>
