<svg width="26" height="31" viewBox="0 0 26 31" fill="none" xmlns="http://www.w3.org/2000/svg">
<g filter="url(#filter0_d_35_251)">
<path d="M13 13.5C12.2583 13.5 11.5333 13.2801 10.9166 12.868C10.2999 12.456 9.81928 11.8703 9.53545 11.1851C9.25162 10.4998 9.17736 9.74584 9.32206 9.01841C9.46675 8.29098 9.8239 7.6228 10.3484 7.09835C10.8728 6.5739 11.541 6.21675 12.2684 6.07206C12.9958 5.92736 13.7498 6.00162 14.4351 6.28545C15.1203 6.56928 15.706 7.04993 16.118 7.66661C16.5301 8.2833 16.75 9.00832 16.75 9.75C16.7488 10.7442 16.3533 11.6973 15.6503 12.4003C14.9473 13.1033 13.9942 13.4988 13 13.5ZM13 7.5C12.555 7.5 12.12 7.63196 11.75 7.8792C11.38 8.12643 11.0916 8.47783 10.9213 8.88896C10.751 9.3001 10.7064 9.7525 10.7932 10.189C10.8801 10.6254 11.0943 11.0263 11.409 11.341C11.7237 11.6557 12.1246 11.87 12.561 11.9568C12.9975 12.0436 13.4499 11.999 13.861 11.8287C14.2722 11.6584 14.6236 11.37 14.8708 11C15.118 10.63 15.25 10.195 15.25 9.75C15.2494 9.15345 15.0122 8.5815 14.5903 8.15967C14.1685 7.73784 13.5966 7.5006 13 7.5Z" fill="#252525"/>
<path d="M13 22.5L6.67301 15.0382C6.58509 14.9262 6.49809 14.8135 6.41201 14.7C5.33124 13.2763 4.74739 11.5374 4.75001 9.75C4.75001 7.56196 5.6192 5.46354 7.16638 3.91637C8.71355 2.36919 10.812 1.5 13 1.5C15.188 1.5 17.2865 2.36919 18.8336 3.91637C20.3808 5.46354 21.25 7.56196 21.25 9.75C21.2526 11.5366 20.669 13.2747 19.5888 14.6978L19.588 14.7C19.588 14.7 19.363 14.9955 19.3293 15.0353L13 22.5ZM7.60901 13.7963C7.61051 13.7963 7.78451 14.0272 7.82426 14.0767L13 20.181L18.1825 14.0685C18.2155 14.0272 18.391 13.7948 18.3918 13.794C19.2746 12.6308 19.7517 11.2103 19.75 9.75C19.75 7.95979 19.0388 6.2429 17.773 4.97703C16.5071 3.71116 14.7902 3 13 3C11.2098 3 9.49291 3.71116 8.22704 4.97703C6.96117 6.2429 6.25001 7.95979 6.25001 9.75C6.24844 11.2112 6.72609 12.6326 7.60976 13.7963H7.60901Z" fill="#252525"/>
</g>
<defs>
<filter id="filter0_d_35_251" x="-3" y="0" width="32" height="32" filterUnits="userSpaceOnUse" color-interpolation-filters="sRGB">
<feFlood flood-opacity="0" result="BackgroundImageFix"/>
<feColorMatrix in="SourceAlpha" type="matrix" values="0 0 0 0 0 0 0 0 0 0 0 0 0 0 0 0 0 0 127 0" result="hardAlpha"/>
<feOffset dy="4"/>
<feGaussianBlur stdDeviation="2"/>
<feComposite in2="hardAlpha" operator="out"/>
<feColorMatrix type="matrix" values="0 0 0 0 0 0 0 0 0 0 0 0 0 0 0 0 0 0 0.25 0"/>
<feBlend mode="normal" in2="BackgroundImageFix" result="effect1_dropShadow_35_251"/>
<feBlend mode="normal" in="SourceGraphic" in2="effect1_dropShadow_35_251" result="shape"/>
</filter>
</defs>
</svg>
