<svg width="24" height="24" viewBox="0 0 24 24" fill="none" xmlns="http://www.w3.org/2000/svg">
<g opacity="0.5">
<path fill-rule="evenodd" clip-rule="evenodd" d="M17.3069 6.67206C15.9036 5.26709 14.0373 4.49301 12.049 4.49219C7.95206 4.49219 4.61771 7.82645 4.61606 11.9245C4.61551 13.2346 4.95773 14.5134 5.60822 15.6406L4.55371 19.4922L8.49405 18.4586C9.57977 19.0508 10.8021 19.3629 12.046 19.3633H12.0491C16.1457 19.3633 19.4804 16.0287 19.4819 11.9305C19.4828 9.94434 18.7103 8.07693 17.3069 6.67206ZM12.049 18.108H12.0465C10.938 18.1075 9.85077 17.8096 8.9021 17.2469L8.67661 17.1129L6.33835 17.7263L6.96246 15.4466L6.81552 15.2128C6.19708 14.2292 5.87051 13.0923 5.87106 11.925C5.87234 8.51877 8.64383 5.74756 12.0515 5.74756C13.7017 5.74811 15.2528 6.39154 16.4192 7.5593C17.5856 8.72705 18.2276 10.2792 18.227 11.93C18.2256 15.3365 15.4543 18.108 12.049 18.108ZM15.4378 13.481C15.2521 13.388 14.339 12.9388 14.1687 12.8768C13.9986 12.8148 13.8746 12.7839 13.7509 12.9698C13.627 13.1556 13.2712 13.574 13.1628 13.6979C13.0544 13.8219 12.9462 13.8374 12.7604 13.7444C12.5746 13.6515 11.9763 13.4553 11.2668 12.8226C10.7148 12.3301 10.342 11.7219 10.2336 11.5361C10.1254 11.35 10.2327 11.2592 10.3151 11.157C10.5162 10.9074 10.7175 10.6456 10.7794 10.5218C10.8414 10.3978 10.8103 10.2893 10.7638 10.1964C10.7175 10.1035 10.3461 9.1893 10.1913 8.81732C10.0405 8.45532 9.88748 8.50421 9.77341 8.49853C9.66519 8.49313 9.54132 8.49203 9.41745 8.49203C9.29367 8.49203 9.09244 8.53845 8.92215 8.72449C8.75195 8.91043 8.27222 9.35968 8.27222 10.2738C8.27222 11.188 8.93771 12.0711 9.03055 12.1951C9.12338 12.319 10.3402 14.1949 12.2032 14.9993C12.6463 15.1909 12.9922 15.305 13.262 15.3906C13.707 15.532 14.1117 15.512 14.4318 15.4642C14.7887 15.4109 15.5305 15.0149 15.6854 14.5811C15.8401 14.1472 15.8401 13.7755 15.7936 13.6979C15.7473 13.6205 15.6234 13.574 15.4378 13.481Z" fill="#181A31"/>
</g>
</svg>
